Coordinates
version=1
nRows=10
nColumns=63
inDegrees=yes

Units are S.I. units (second, meters, Newtons, ...)
If the header above contains a line with 'inDegrees', this indicates whether rotational values are in degrees (yes) or radians (no).

endheader
time	pelvis_tilt	pelvis_list	pelvis_rotation	pelvis_tx	pelvis_ty	pelvis_tz	hip_flexion_r	hip_adduction_r	hip_rotation_r	knee_angle_r	knee_angle_r_beta	ankle_angle_r	subtalar_angle_r	mtp_angle_r	hip_flexion_l	hip_adduction_l	hip_rotation_l	knee_angle_l	knee_angle_l_beta	ankle_angle_l	subtalar_angle_l	mtp_angle_l	L5_S1_Flex_Ext	L5_S1_Lat_Bending	L5_S1_axial_rotation	L4_L5_Flex_Ext	L4_L5_Lat_Bending	L4_L5_axial_rotation	L3_L4_Flex_Ext	L3_L4_Lat_Bending	L3_L4_axial_rotation	L2_L3_Flex_Ext	L2_L3_Lat_Bending	L2_L3_axial_rotation	L1_L2_Flex_Ext	L1_L2_Lat_Bending	L1_L2_axial_rotation	L1_T12_Flex_Ext	L1_T12_Lat_Bending	L1_T12_axial_rotation	Abs_r3	Abs_r2	Abs_r1	Abs_t1	Abs_t2	neck_flexion	neck_bending	neck_rotation	arm_flex_r	arm_add_r	arm_rot_r	elbow_flex_r	pro_sup_r	wrist_flex_r	wrist_dev_r	arm_flex_l	arm_add_l	arm_rot_l	elbow_flex_l	pro_sup_l	wrist_flex_l	wrist_dev_l
      2.71186441	      4.47254558	     -3.19391338	    103.22963898	      0.25913763	      0.92817730	      0.45843855	     -7.42090282	      4.42366643	    -11.44996088	      8.81063963	      0.15377467	     29.42991884	      1.53795631	      0.00000000	     -6.43306665	     -7.04638901	      1.53980801	      4.74728176	      0.08285570	     32.82343575	     11.43200092	      0.00000000	     -0.02040213	      0.16255795	     -1.50721856	     -0.03788879	      0.21620208	     -1.60141972	     -0.03351865	      0.39524341	     -1.60141972	     -0.02331759	      0.39524341	     -1.31881624	     -0.01894541	      0.33148818	     -1.22461508	     -0.01165777	      0.25180227	     -1.13041392	     -0.14573035	      1.83888808	     -8.38269744	      0.00000000	      0.00000000	      8.74792137	      2.95201246	     -0.11196923	     27.88017399	    -21.40294718	    -10.12784279	    135.46237038	     88.14885416	      2.17816796	     21.97880004	     -6.19352794	    -30.33784624	     42.37336806	     99.46993693	     88.37521252	     12.20505664	     23.30022181
      2.72881356	      4.41387116	     -3.32815166	    104.05216415	      0.25877290	      0.92769711	      0.45916239	     -7.24107348	      4.46551818	    -12.14115781	      8.86423255	      0.15471004	     29.60593365	      1.33285529	      0.00000000	     -5.99004291	     -7.09334365	      1.57923077	      5.10473029	      0.08909435	     33.00351847	     12.02899258	      0.00000000	     -0.01757928	      0.14684835	     -1.72342231	     -0.03264648	      0.19530830	     -1.83113620	     -0.02888100	      0.35704707	     -1.83113620	     -0.02009136	      0.35704707	     -1.50799452	     -0.01632412	      0.29945315	     -1.40028062	     -0.01004480	      0.22746809	     -1.29256673	     -0.12556702	      1.66117787	     -9.58515784	      0.00000000	      0.00000000	      8.98577805	      3.11985106	      0.34786002	     27.93365145	    -20.93147856	    -10.09920497	    135.43994465	     87.88535075	      2.51659078	     21.65549147	     -6.99074034	    -30.36292638	     41.42059287	     99.87184366	     88.39622357	     11.96259038	     23.91547003
      2.74576271	      4.34785002	     -3.43285836	    104.75724491	      0.25866511	      0.92739078	      0.45973694	     -7.14705803	      4.48961445	    -13.08556062	      8.81384365	      0.15383059	     29.71695813	      1.57810315	      0.00000000	     -5.60030523	     -7.15581111	      0.98453996	      5.42452023	      0.09467574	     33.26235417	     13.46033215	      0.00000000	     -0.02418297	      0.12839513	     -1.89287871	     -0.04491020	      0.17076553	     -2.01118363	     -0.03973021	      0.31217993	     -2.01118363	     -0.02763872	      0.31217993	     -1.65626887	     -0.02245631	      0.26182335	     -1.53796395	     -0.01381815	      0.19888406	     -1.41965903	     -0.17273656	      1.45243142	    -10.52762353	      0.00000000	      0.00000000	      9.30047897	      3.22890933	      0.52795984	     27.69042211	    -20.49716603	    -10.25171268	    135.37483132	     87.45527724	      2.76436702	     19.83898710	     -7.42064894	    -30.61631763	     41.09551012	    100.13803897	     88.43827341	     10.94273832	     23.40313453
      2.76271186	      4.25611429	     -3.51342777	    105.42710908	      0.25869857	      0.92719271	      0.46007644	     -7.10433677	      4.56392530	    -13.17174155	      8.70803664	      0.15198391	     29.56525796	      0.59560147	      0.00000000	     -5.27470047	     -7.17242970	      1.15106352	      5.66211345	      0.09882252	     33.39942874	     14.02162655	      0.00000000	     -0.03722661	      0.10646537	     -2.06088720	     -0.06913353	      0.14159894	     -2.18969265	     -0.06115959	      0.25885990	     -2.18969265	     -0.04254629	      0.25885990	     -1.80327630	     -0.03456863	      0.21710418	     -1.67447085	     -0.02127128	      0.16491486	     -1.54566540	     -0.26590594	      1.20435754	    -11.46203635	      0.00000000	      0.00000000	      9.65062056	      3.35684253	      0.72475530	     27.40457428	    -20.02598679	    -10.40841442	    135.41409933	     86.82184899	      3.06982549	     18.19129223	     -7.78482145	    -31.00603824	     41.00656096	    100.47099430	     88.46248188	      9.32788642	     22.81788092
      2.77966102	      4.07862094	     -3.54737130	    105.90363894	      0.25896079	      0.92719640	      0.46011553	     -7.19086288	      4.57136832	    -12.82337700	      8.49610761	      0.14828505	     29.29501061	     -0.74940754	      0.00000000	     -5.02887836	     -7.10816597	      0.96750741	      5.96502844	      0.10410939	     33.54932841	     14.84337912	      0.00000000	     -0.05870381	      0.07361960	     -2.20429476	     -0.10901884	      0.09791406	     -2.34206318	     -0.09644448	      0.17899868	     -2.34206318	     -0.06709258	      0.17899868	     -1.92875791	     -0.05451235	      0.15012508	     -1.79098949	     -0.03354335	      0.11403675	     -1.65322107	     -0.41931542	      0.83279959	    -12.25962616	      0.00000000	      0.00000000	      9.95778381	      3.49179948	      0.80513659	     27.12344378	    -19.52603572	    -10.52929162	    135.43410384	     86.18451373	      3.60175225	     16.52656309	     -8.20680675	    -31.43162509	     40.88840606	    100.73348689	     88.49765109	      7.74562982	     21.91489325
      2.79661017	      3.90936841	     -3.58435409	    106.37578769	      0.25907790	      0.92721030	      0.45989713	     -7.26486355	      4.48797074	    -13.67104221	      8.37683162	      0.14620329	     29.43083821	     -0.37856049	      0.00000000	     -4.85851484	     -7.00657527	      1.76956912	      6.11551812	      0.10673593	     33.57686010	     14.49844039	      0.00000000	     -0.07157172	      0.04183497	     -2.34924273	     -0.13291584	      0.05564051	     -2.49607040	     -0.11758518	      0.10171754	     -2.49607040	     -0.08179932	      0.10171754	     -2.05558739	     -0.06646150	      0.08530987	     -1.90875972	     -0.04089608	      0.06480237	     -1.76193205	     -0.51122965	      0.47324553	    -13.06578331	      0.00000000	      0.00000000	     10.21020050	      3.64512549	      0.95737309	     26.81125132	    -19.23548325	    -10.54117646	    135.57532860	     85.69798303	      3.69811415	     15.32122112	     -8.69574243	    -31.76867889	     40.68907165	    101.03082283	     88.50051563	      6.31389427	     21.65401000
      2.81355932	      3.75152668	     -3.53729628	    106.44952693	      0.25941829	      0.92736761	      0.45963227	     -7.38547717	      4.37686251	    -14.01847765	      8.29616696	      0.14479543	     29.62091798	     -0.05498030	      0.00000000	     -4.77228179	     -6.89172496	      1.94644402	      6.44248538	      0.11244258	     33.68756971	     14.27652213	      0.00000000	     -0.09117200	      0.01662515	     -2.42701217	     -0.16931552	      0.02211146	     -2.57870043	     -0.14978647	      0.04042240	     -2.57870043	     -0.10420048	      0.04042240	     -2.12363565	     -0.08466232	      0.03390201	     -1.97194739	     -0.05209568	      0.02575236	     -1.82025913	     -0.65123246	      0.18806707	    -13.49831357	      0.00000000	      0.00000000	     10.32109102	      3.94041452	      1.31082239	     26.65089506	    -19.04761655	    -10.53738462	    135.66071643	     85.97442760	      3.92013772	     14.36189906	     -9.16836019	    -31.92582065	     40.29151889	    101.20066779	     88.51003111	      5.61325104	     21.66039374
      2.83050847	      3.69925199	     -3.44494640	    106.79968999	      0.25938911	      0.92750862	      0.45923378	     -7.59802527	      4.48666787	    -13.93408780	      8.02552751	      0.14007188	     29.54090070	     -0.58869072	      0.00000000	     -4.67242864	     -6.94017081	      2.27042824	      6.74024945	      0.11763955	     33.83000288	     14.23326001	      0.00000000	     -0.09971626	      0.00632808	     -2.55461249	     -0.18518307	      0.00841635	     -2.71427577	     -0.16382384	      0.01538610	     -2.71427577	     -0.11396571	      0.01538610	     -2.23528593	     -0.09259652	      0.01290423	     -2.07562265	     -0.05697787	      0.00980220	     -1.91595937	     -0.71226328	      0.07158455	    -14.20798829	      0.00000000	      0.00000000	     10.19650168	      3.94435127	      1.60084358	     26.45839287	    -19.00715184	    -10.38268648	    135.65215203	     85.95659487	      3.96609471	     13.32226294	     -9.69005289	    -31.89758949	     39.58580459	    101.14940332	     88.52022707	      6.30151743	     21.55676466
      2.84745763	      3.58908752	     -3.35302629	    106.93502786	      0.25945953	      0.92770466	      0.45865549	     -7.80302791	      4.42604535	    -14.68356652	      7.87805021	      0.13749791	     29.83481012	      0.41001683	      0.00000000	     -4.65794256	     -6.88449146	      2.59107418	      7.00438521	      0.12224958	     33.86992883	     13.85940199	      0.00000000	     -0.09994879	     -0.01388675	     -2.60208332	     -0.18561490	     -0.01846937	     -2.76471353	     -0.16420587	     -0.03376424	     -2.76471353	     -0.11423147	     -0.03376424	     -2.27682291	     -0.09281245	     -0.02831786	     -2.11419270	     -0.05711074	     -0.02151057	     -1.95156249	     -0.71392422	     -0.15708967	    -14.47200680	      0.00000000	      0.00000000	      9.94805311	      4.03844323	      1.47699230	     26.05677823	    -19.00719490	    -10.56886149	    135.74567832	     86.42731943	      3.92737181	     12.62544491	     -9.84156610	    -31.94779331	     39.36152644	    101.13284186	     88.47516567	      6.63938970	     22.07662670
      2.86440678	      3.57056729	     -3.21290681	    106.75623066	      0.25969863	      0.92790250	      0.45778510	     -8.06957096	      4.50099333	    -14.09805260	      7.63973123	      0.13333846	     29.77461163	      0.07506351	      0.00000000	     -4.80490225	     -6.94271638	      1.97603343	      7.13506828	      0.12453043	     33.99704333	     14.41707544	      0.00000000	     -0.09584592	     -0.01779771	     -2.56128661	     -0.17799546	     -0.02367095	     -2.72136703	     -0.15746526	     -0.04327335	     -2.72136703	     -0.10954230	     -0.04327335	     -2.24112579	     -0.08900252	     -0.03629309	     -2.08104537	     -0.05476636	     -0.02756865	     -1.92096496	     -0.68461783	     -0.20133123	    -14.24510776	      0.00000000	      0.00000000	      9.62308795	      3.91273952	      1.13174173	     25.61942368	    -19.16943835	    -10.66297318	    135.85513129	     86.59002725	      3.08777631	     11.96991534	     -9.78850123	    -31.78684827	     39.12190712	    100.97910675	     88.42580233	      8.17863085	     22.99384464
